<?xml version="1.0" encoding="UTF-8"?>
<!DOCTYPE svg PUBLIC "-//W3C//DTD SVG 1.1//EN" "http://www.w3.org/Graphics/SVG/1.1/DTD/svg11.dtd">
<!-- Creator: CorelDRAW X8 -->
<svg xmlns="http://www.w3.org/2000/svg" xml:space="preserve" width="149.684mm" height="52.4537mm" version="1.1" style="shape-rendering:geometricPrecision; text-rendering:geometricPrecision; image-rendering:optimizeQuality; fill-rule:evenodd; clip-rule:evenodd"
viewBox="0 0 14812 5191"
 xmlns:xlink="http://www.w3.org/1999/xlink">
 <defs>
  <style type="text/css">
   <![CDATA[
    .fil0 {fill:#FEFEFE;fill-rule:nonzero}
   ]]>
  </style>
 </defs>
 <g id="Слой_x0020_1">
  <metadata id="CorelCorpID_0Corel-Layer"/>
  <path class="fil0" d="M7382 811l0 728 -693 0c-229,0 -417,-127 -417,-367 0,-229 188,-361 417,-361l693 0zm-4261 1380l433 -1278 432 1278 -865 0zm2254 -1013c0,590 362,906 683,1018l-680 1224 -1274 -3373 -1100 0 -1279 3396 994 0 167 -488 1340 0 168 488 1974 0 566 -1140 448 0 0 1140 881 0 0 -3396 -1701 0c-754,0 -1187,499 -1187,1131z"/>
  <polygon class="fil0" points="11800,3443 10409,1636 11728,47 10649,47 9605,1442 9605,47 8729,47 8729,3443 9605,3443 9605,2451 9834,2165 10725,3443 "/>
  <path class="fil0" d="M9255 4551l-290 0 0 -344 290 0c115,0 193,69 193,172 0,102 -80,172 -193,172zm35 -541l-561 0 0 1159 236 0 0 -421 325 0c275,0 399,-185 399,-369 0,-184 -124,-369 -399,-369z"/>
  <polygon class="fil0" points="10151,4801 10151,4010 9916,4010 9916,5169 10148,5169 10752,4350 10752,5169 10987,5169 10987,4010 10738,4010 "/>
  <path class="fil0" d="M11720 3990c-268,0 -416,145 -493,272l201 96c60,-103 175,-169 297,-169 183,0 327,107 376,277l5 16 -587 0 0 197 591 0 -3 15c-43,181 -193,297 -382,297 -123,0 -238,-65 -298,-168l-200 94c78,127 226,274 493,274 370,0 639,-253 639,-601 0,-347 -269,-600 -639,-600z"/>
  <path class="fil0" d="M12720 4604c-19,154 -46,253 -87,311 -34,50 -80,73 -146,76l0 199c247,-3 411,-103 467,-571l49 -412 397 0 0 962 238 0 0 -1159 -847 0 -71 594z"/>
  <polygon class="fil0" points="13855,4207 14213,4207 14213,5169 14450,5169 14450,4207 14807,4207 14807,4010 13855,4010 "/>
  <polygon class="fil0" points="541,3443 0,3443 0,5169 2053,5169 2257,4628 541,4628 "/>
  <path class="fil0" d="M13841 2330c-317,345 -850,364 -1190,42 -340,-322 -359,-863 -42,-1209 317,-345 850,-364 1190,-42 71,67 128,144 171,227l842 -274c-91,-223 -230,-430 -415,-605 -694,-658 -1782,-619 -2429,86 -648,706 -610,1811 85,2469 694,658 1782,619 2429,-86 141,-154 249,-326 325,-508l-829 -301c-35,71 -81,139 -137,201z"/>
 </g>
</svg>
