<?xml version="1.0" encoding="UTF-8"?>
<!DOCTYPE svg PUBLIC "-//W3C//DTD SVG 1.1//EN" "http://www.w3.org/Graphics/SVG/1.1/DTD/svg11.dtd">
<!-- Creator: CorelDRAW X8 -->
<svg xmlns="http://www.w3.org/2000/svg" xml:space="preserve" width="126.533mm" height="44.2926mm" version="1.1" style="shape-rendering:geometricPrecision; text-rendering:geometricPrecision; image-rendering:optimizeQuality; fill-rule:evenodd; clip-rule:evenodd"
viewBox="0 0 24862 8703"
 xmlns:xlink="http://www.w3.org/1999/xlink">
 <defs>
  <style type="text/css">
   <![CDATA[
    .fil0 {fill:#ffffff;fill-rule:nonzero}
   ]]>
  </style>
 </defs>
 <g id="Слой_x0020_1">
  <metadata id="CorelCorpID_0Corel-Layer"/>
  <g id="_1486885360">
   <path class="fil0" d="M12390 1360l0 1220 -1162 0c-385,0 -701,-213 -701,-614 0,-385 316,-606 701,-606l1162 0zm-7152 2313l727 -2143 726 2143 -1453 0zm3784 -1699c0,991 607,1520 1146,1708l-1141 2053 -2139 -5656 -1847 0 -2145 5695 1667 0 282 -820 2248 0 282 820 3314 0 949 -1913 752 0 0 1913 1479 0 0 -5695 -2855 0c-1265,0 -1992,837 -1992,1895z"/>
   <polygon class="fil0" points="19806,5774 17472,2743 19686,79 17874,79 16122,2418 16122,79 14652,79 14652,5774 16122,5774 16122,4109 16506,3631 18002,5774 "/>
   <path class="fil0" d="M15534 7631l-487 0 0 -577 487 0c194,0 324,116 324,288 0,170 -133,289 -324,289zm59 -908l-941 0 0 1944 395 0 0 -706 546 0c462,0 669,-310 669,-619 0,-308 -207,-619 -669,-619z"/>
   <polygon class="fil0" points="17038,8050 17038,6723 16643,6723 16643,8667 17033,8667 18046,7293 18046,8667 18442,8667 18442,6723 18024,6723 "/>
   <path class="fil0" d="M19671 6690c-450,0 -697,244 -827,456l337 160c101,-172 295,-282 499,-282 307,0 549,178 632,465l7 26 -984 0 0 330 992 0 -6 26c-72,302 -323,498 -641,498 -206,0 -400,-110 -499,-282l-337 157c131,214 379,459 827,459 622,0 1074,-423 1074,-1007 0,-582 -452,-1006 -1074,-1006z"/>
   <path class="fil0" d="M21351 7720c-32,257 -79,423 -146,521 -58,83 -134,123 -246,128l0 333c415,-5 690,-173 784,-957l83 -691 666 0 0 1613 398 0 0 -1944 -1421 0 -118 997z"/>
   <polygon class="fil0" points="23255,7054 23856,7054 23856,8667 24255,8667 24255,7054 24853,7054 24853,6723 23255,6723 "/>
   <polygon class="fil0" points="908,5774 0,5774 0,8667 3446,8667 3788,7759 908,7759 "/>
   <path class="fil0" d="M23231 3906c-532,579 -1426,611 -1997,71 -570,-540 -602,-1447 -70,-2027 533,-579 1427,-610 1998,-71 119,113 214,242 286,380l1414 -458c-154,-374 -386,-721 -696,-1014 -1166,-1103 -2992,-1039 -4079,144 -1086,1183 -1022,3036 143,4139 1166,1103 2991,1038 4078,-145 236,-256 418,-545 546,-850l-1392 -506c-59,120 -136,234 -231,337z"/>
  </g>
 </g>
</svg>
